<svg width="24" height="24" viewBox="0 0 24 24" fill="none" xmlns="http://www.w3.org/2000/svg">
<path d="M18 10.9971C17.6078 10.1968 16.5481 9.02153 14.3703 9.07154C14.3703 9.07154 12.6431 8.99652 10.6906 8.99652C8.7382 8.99652 7.82413 9.04224 6.26004 9.07154C5.25877 9.04653 3.35634 9.2716 2.48023 11.3472C1.9045 13.0976 1.87946 16.7736 2.22991 18.6241C2.30501 19.5744 2.80564 20.8998 4.35762 21.6C5.30883 22.1001 6.83578 21.9 7.98725 22.0001M5.9847 8.1963C5.93463 5.82065 5.8345 3.94514 8.58801 2.39472C9.51419 2.01962 10.8909 1.69453 12.5931 2.49475C14.3703 3.57004 14.5917 4.70802 14.7458 4.99543C15.1713 6.12074 14.9461 7.72117 14.9961 8.37135" stroke="#003C05" stroke-width="1.5" stroke-linecap="round"/>
<path d="M15.5 19.7351C15.5 20.9792 14.4911 21.9656 13.2552 21.9656C12.0194 21.9656 11 20.9792 11 19.7351C11 18.4911 12.0194 17.4915 13.2552 17.4915C14.4911 17.4915 15.5 18.4911 15.5 19.7351Z" stroke="#003C05" stroke-width="1.5"/>
<path d="M15.2251 17.7909L17.2156 15.8482M17.2156 15.8482L18.6264 14.4906C18.9501 14.2149 19.6001 13.5692 20.3731 14.3089L22.0001 15.8482M17.2156 15.8482L18.8251 17.3936" stroke="#003C05" stroke-width="1.5" stroke-linecap="round"/>
</svg>
