<svg width="150" height="34" viewBox="0 0 150 34" fill="none" xmlns="http://www.w3.org/2000/svg">
<path d="M2.25033 17.34C0.375327 15.78 0.330327 12.255 3.48033 8.07001C6.13533 4.50001 10.0803 1.45501 12.7203 1.27501C16.2903 1.03501 15.3753 7.03501 13.4553 9.37501C12.3303 10.74 11.2053 9.34501 12.3003 8.68501C15.1803 7.00501 15.6603 2.25001 12.4503 2.49001C10.0203 2.68501 5.56533 5.68501 3.33033 9.51001C0.405327 14.43 1.87533 16.56 4.69533 16.68C8.77533 16.86 15.9303 12 16.2903 8.55001C16.1703 7.35001 17.2953 7.00501 17.2503 8.76001C17.0553 10.89 16.0803 14.745 14.8353 17.745C16.5903 16.785 18.4803 15.66 20.2353 14.76C21.0303 14.355 21.4953 14.865 20.4003 15.39C18.4053 16.41 16.3653 17.55 14.5503 18.615C13.6653 20.91 12.4203 23.31 11.2803 25.485C9.27033 29.295 6.94533 31.485 4.90533 32.13C1.86033 33.09 0.000327103 30.705 3.67533 26.07C5.88033 23.31 9.43533 20.85 13.4703 18.525C15.0303 15.135 15.9603 13.005 16.4853 9.42001C15.5253 13.515 6.18033 20.64 2.25033 17.34ZM4.27533 26.97C2.61033 29.115 2.53533 30.375 3.07533 30.66C3.91533 31.14 6.72033 29.49 9.07533 26.055C10.4403 24.09 11.8053 21.765 12.9453 19.56C9.39033 21.72 6.22533 24.495 4.27533 26.97ZM19.3077 18.24C18.9027 17.43 19.1427 16.245 19.5327 15.405C20.2977 13.845 22.0377 12.75 23.8827 13.275C24.4077 13.635 23.7327 14.16 23.1927 13.785C21.4077 12.885 20.5977 16.23 20.6577 17.52C20.7027 18.045 21.0327 18.18 21.4527 17.76C21.9777 17.235 22.3977 15.99 22.4427 15.525C20.6127 14.94 22.4127 13.2 22.8327 15C24.1077 15.195 25.9227 15.075 27.1377 14.76C28.5327 14.4 27.8727 15.27 27.4527 15.36C26.1927 15.675 24.3327 15.795 22.9377 15.6C22.9377 16.455 22.5177 17.745 21.7677 18.42C21.1077 19.035 19.7877 19.215 19.3077 18.24ZM28.2697 14.28C27.5497 15.765 25.0447 23.01 27.2947 23.595C28.8097 24.015 31.7797 20.1 33.6397 16.98C34.1047 16.2 34.5397 15.435 35.0047 14.76C35.4397 14.04 35.9797 14.46 35.4547 15.18C34.9597 15.945 34.4647 16.785 33.9397 17.64C32.0647 20.79 28.9297 24.165 27.1597 23.97C24.7597 23.67 25.5697 19.35 26.4697 16.095C27.8047 11.085 29.9647 5.59501 31.7497 3.75001C32.7397 2.76001 34.2097 2.83501 33.8497 4.78501C33.3697 7.42501 30.2497 11.7 28.2697 14.28ZM31.3897 6.75001C30.4297 8.29501 29.5747 10.365 28.8697 12.39C29.9947 10.77 31.2997 8.74501 32.1697 7.00501C33.4147 4.56001 32.7547 4.59001 31.3897 6.75001ZM36.2039 14.28C35.8589 15.09 34.2389 22.68 34.1189 26.46C33.8039 33.705 35.7689 21.885 36.1589 18.96C36.2339 18.525 36.2189 18.105 36.6539 17.7C37.7189 16.71 40.7789 16.17 42.2939 15.09C42.4439 14.985 42.5789 14.865 42.7139 14.76C43.6739 13.89 43.7789 14.835 43.0589 15.315C42.8639 15.51 42.6539 15.675 42.4289 15.84C40.9739 16.89 38.6189 17.28 37.0139 18.12C36.7739 18.24 36.7739 18.405 36.7289 18.705C36.4139 20.94 36.2939 30.075 34.2089 30C33.3989 30 32.5439 28.89 32.4989 26.685C32.3339 20.31 37.1039 4.98001 40.1039 4.98001C40.7039 4.98001 41.2289 5.20501 41.0339 6.36001C40.5539 9.00001 38.1839 11.7 36.2039 14.28ZM39.3239 6.75001C38.3639 8.29501 37.5089 10.365 36.8039 12.39C37.9139 10.8 39.5039 8.50501 40.1039 7.00501C40.7039 5.52001 40.3289 5.19001 39.3239 6.75001ZM61.5743 3.82501C62.8943 2.22001 64.7993 0.450009 67.0643 0.330009C68.8793 0.210008 70.4393 1.54501 70.0343 4.59001C69.7943 6.27001 69.2093 8.17501 68.5643 8.94001C67.4243 10.32 66.4643 9.07501 67.4093 8.25001C68.3843 7.65001 69.2543 6.16501 69.5243 4.74001C69.9593 2.29501 68.5343 1.08001 66.7343 1.20001C64.6643 1.36501 63.0443 3.01501 61.7243 4.69501C58.3043 9.01501 53.6843 18.27 55.6643 24.225C56.3393 26.355 57.7493 27.21 59.2943 27.255C61.2443 27.33 63.6143 26.13 65.5643 24.585C67.2893 23.25 68.9543 21.585 70.4393 19.95C72.2243 17.985 73.6193 16.065 74.4443 14.76C74.9243 13.965 75.4643 14.535 74.8943 15.27C73.8293 16.83 72.4793 18.615 70.9193 20.415C69.2993 22.29 67.5143 24.075 65.6393 25.44C63.8393 26.88 61.4543 27.915 59.3093 27.915C57.4493 27.93 55.8743 27.225 54.8093 25.485C51.4343 20.115 57.9743 8.22001 61.5743 3.82501ZM73.5157 18.24C73.1107 17.43 73.3507 16.245 73.7407 15.405C74.5057 13.845 76.2457 12.75 78.0907 13.275C78.6157 13.635 77.9407 14.16 77.4007 13.785C75.6157 12.885 74.8057 16.23 74.8657 17.52C74.9107 18.045 75.2407 18.18 75.6607 17.76C76.1857 17.235 76.6057 15.99 76.6507 15.525C74.8207 14.94 76.6207 13.2 77.0407 15C78.3157 15.195 80.1307 15.075 81.3457 14.76C82.7407 14.4 82.0807 15.27 81.6607 15.36C80.4007 15.675 78.5407 15.795 77.1457 15.6C77.1457 16.455 76.7257 17.745 75.9757 18.42C75.3157 19.035 73.9957 19.215 73.5157 18.24ZM101.828 18.9C100.478 18.825 100.193 17.805 100.703 16.68C100.778 16.53 99.6977 17.295 98.9027 18.06C98.4977 18.42 98.2877 18.765 97.7327 19.11C97.0277 19.395 96.6377 19.05 96.9827 18.51C98.1377 16.755 98.9627 15 98.3027 14.955C96.9077 14.835 95.9777 17.4 95.3777 18.48C95.0777 19.02 94.7327 19.44 94.3577 19.44C93.7127 19.44 93.5027 18.585 93.5027 18.045C93.4577 17.34 93.4577 16.74 93.5177 16.2C92.2427 17.55 90.6377 19.02 88.9277 18.9C87.5777 18.825 87.2927 17.805 87.8027 16.68C87.8777 16.53 86.7977 17.295 86.0027 18.06C85.6127 18.42 85.2527 19.32 84.6977 19.635C83.9927 19.92 83.6027 19.575 83.9477 19.035C85.1027 17.265 86.3177 14.22 85.7927 13.8C84.9527 13.5 82.9277 18.015 82.8077 18.195C82.3577 19.17 81.7877 20.58 81.1127 20.58C80.4677 20.58 80.3027 19.725 80.2577 19.185C80.0777 17.625 81.0527 14.055 81.8927 13.035C82.5377 12.285 83.4377 12.675 83.2277 13.335C82.8677 14.535 81.2027 18.105 81.1427 19.455C81.1427 19.545 81.1277 19.875 81.3227 19.635C82.1627 18.6 83.9627 13.02 86.0477 13.02C87.2477 13.02 86.8427 15.36 86.3177 16.92C87.0227 16.335 87.9827 15.345 88.5527 15.105C89.0777 14.88 89.4677 15.12 89.2877 15.54C88.5827 17.16 88.5377 18.135 89.2427 18.3C90.8627 18.48 92.9027 15.765 94.0577 14.61C94.5827 13.785 95.5877 14.265 95.3927 14.91C95.0327 16.125 94.4627 16.95 94.3877 18.315C94.3877 18.405 94.3727 18.735 94.5677 18.495C95.4227 17.445 96.4577 14.175 98.5577 14.175C99.7577 14.175 99.7427 15.36 99.2177 16.92C99.9227 16.335 100.583 15.66 101.168 15.405C101.693 15.18 102.083 15.42 101.903 15.84C101.198 17.445 101.438 18.165 102.143 18.3C103.583 18.42 105.848 15.99 106.853 14.76C107.258 14.19 107.948 14.475 107.333 15.135C106.058 16.695 103.973 19.02 101.828 18.9ZM108.559 13.875C108.364 14.55 107.239 16.815 107.074 17.745C106.954 18.39 107.419 18.21 107.749 17.91C108.619 17.19 109.789 15.105 110.029 14.865C110.719 14.295 111.574 14.85 111.259 15.54C110.494 17.115 110.509 18.135 111.214 18.3C112.654 18.42 114.919 15.99 115.924 14.76C116.329 14.19 117.019 14.475 116.404 15.135C115.129 16.695 113.044 19.02 110.899 18.9C109.549 18.825 109.264 17.805 109.774 16.68C108.874 17.82 107.794 19.2 106.579 18.6C105.754 18.21 105.829 17.145 105.979 16.44C106.249 15.135 106.939 13.785 107.314 13.245C107.914 12.435 108.799 12.885 108.559 13.875ZM119.314 15.3C119.209 15.09 116.944 18.78 116.524 19.575C116.299 19.86 116.074 20.055 115.819 20.055C115.174 20.055 115.009 19.2 114.964 18.66C114.799 17.1 115.609 14.055 116.464 13.035C117.109 12.285 118.009 12.675 117.799 13.335C117.439 14.55 115.924 17.58 115.849 18.93C115.849 19.02 115.834 19.35 116.029 19.11C116.209 18.87 118.039 15.285 119.464 14.22C119.929 13.875 120.349 13.815 120.649 14.235C121.294 15.18 119.224 17.94 121.054 18.36C122.479 18.72 125.299 16.035 126.349 14.76C126.754 14.19 127.444 14.475 126.829 15.135C125.494 16.71 122.974 19.215 120.769 18.975C119.119 18.81 118.789 17.055 119.269 15.6C119.314 15.48 119.359 15.345 119.314 15.3ZM126.286 14.04C127.006 13.365 127.831 13.68 127.621 14.34C126.946 16.38 127.351 17.25 128.191 17.445C129.631 17.76 132.406 16.05 133.486 14.76C133.891 14.19 134.581 14.475 133.966 15.135C132.631 16.71 130.111 18.3 127.906 18.06C126.091 17.895 125.461 15.66 126.286 14.04ZM126.916 12.12C127.156 11.1 128.986 10.44 128.011 12.495C127.651 13.095 126.676 12.945 126.916 12.12ZM126.843 8.80501C127.488 8.91001 128.058 8.95501 128.643 9.00001C130.638 9.10501 132.648 8.95501 134.673 8.73001C135.633 5.49001 136.818 2.64001 138.003 1.14001C138.858 9.17912e-06 140.373 0.0600084 140.178 2.02501C139.983 3.75001 138.723 6.16501 137.403 8.46001C139.803 8.22001 143.193 7.83001 145.833 8.11501C147.093 8.28001 148.158 8.56501 148.863 9.12001C149.388 9.55501 148.308 10.38 147.903 9.48001C147.618 8.83501 146.808 8.53501 145.728 8.41501C143.358 8.17501 139.653 8.82001 137.118 9.10501C137.088 9.12001 137.058 9.12001 137.013 9.12001C136.368 10.14 135.768 11.1 135.243 11.895C134.223 14.46 132.663 19.92 132.783 22.98C132.828 24.585 133.278 25.56 134.298 26.145C135.033 26.595 134.163 27.39 133.263 26.565C132.618 25.92 132.303 24.675 132.258 23.055C132.138 19.695 133.098 14.145 134.493 9.34501C132.648 9.46501 130.803 9.52501 128.868 9.42001C127.743 9.37501 126.843 9.28501 126.258 9.12001C125.523 8.76001 126.243 7.77001 126.843 8.80501ZM137.853 4.15501C137.178 5.41501 136.578 6.96001 136.098 8.58001L136.533 8.53501C137.313 7.15501 138.093 5.68501 138.633 4.35001C139.713 1.83001 139.068 1.93501 137.853 4.15501ZM135.723 9.94501L136.158 9.21001C136.083 9.21001 135.993 9.22501 135.918 9.22501C135.843 9.46501 135.783 9.70501 135.723 9.94501ZM141.504 15C141.609 14.505 141.504 14.64 141.309 14.94C140.949 15.465 140.439 16.26 139.944 16.98C139.224 18.06 138.369 18.93 137.319 18.54C136.464 18.21 136.479 16.74 136.644 16.035C136.929 14.7 137.529 13.335 137.979 12.84C138.534 12.165 139.389 12.6 139.224 13.47C139.029 14.145 137.814 15.87 137.739 17.34C137.619 17.985 138.084 17.805 138.414 17.505C139.254 16.815 140.784 15.015 141.414 13.995C141.594 13.74 142.149 13.455 142.149 14.265C142.134 15.105 141.999 16.62 141.684 18.435C143.484 16.83 145.914 15.405 147.834 14.76C148.794 14.4 148.494 15.21 148.134 15.285C146.079 15.765 143.274 17.64 141.504 19.455C140.784 23.235 139.344 27.9 136.914 30.21C135.909 31.17 134.454 31.14 134.814 29.175C135.294 26.55 138.699 21.81 140.394 19.68C140.874 18.09 141.309 15.945 141.504 15ZM137.274 27.21C138.234 25.665 139.089 23.595 139.794 21.57C138.669 23.175 137.379 25.23 136.494 26.955C135.249 29.4 135.909 29.37 137.274 27.21Z" fill="#094D02"/>
<path d="M48.5966 4.66501C49.5266 3.42001 50.5016 4.60501 49.1816 5.76001C48.2516 6.60001 40.9766 14.19 44.6666 14.745C45.1316 14.805 45.8216 14.73 46.7966 14.445C47.5316 14.25 48.2666 14.085 48.9416 13.98C50.0216 10.23 51.3866 7.23001 53.5166 3.49501C54.2066 2.80501 55.4066 3.46501 54.4466 4.83001C54.3716 5.11501 51.6416 8.56501 49.7966 13.875C50.6216 13.8 51.3266 13.83 51.8666 14.055C52.9316 14.49 52.3766 15.57 51.5366 15.21C50.9816 14.985 50.2916 14.82 49.4966 14.775C49.4216 15 49.3466 15.21 49.2866 15.435C48.7616 17.16 48.2666 19.02 48.3266 21.015C48.3566 21.945 48.5516 22.725 48.8966 23.34C49.8866 24.39 48.3266 25.215 47.6816 23.625C47.4416 23.1 47.3666 22.26 47.4716 21.135C47.6516 19.05 48.1616 17.04 48.6866 14.955L48.7316 14.76C48.0866 14.775 47.4416 14.85 46.7366 15.015C45.7316 15.255 44.9516 15.36 44.3066 15.405C38.6366 15.6 47.4266 6.19501 48.5966 4.66501Z" fill="#F9AA29"/>
</svg>
