<svg width="80" height="80" viewBox="0 0 80 80" fill="none" xmlns="http://www.w3.org/2000/svg">
<path d="M21.6665 30H28.3332" stroke="#003C05" stroke-width="3.75" stroke-linecap="round" stroke-linejoin="round"/>
<path d="M58.3335 26.6667V13.3334C58.3335 9.65145 61.3182 6.66669 65.0002 6.66669" stroke="#003C05" stroke-width="3.75" stroke-linecap="round" stroke-linejoin="round"/>
<path d="M41.6665 60V73.3333" stroke="#003C05" stroke-width="3.75" stroke-linecap="round"/>
<path d="M58.3335 17.1963C55.1172 16.6667 50.8638 16.6667 44.5835 16.6667H35.4168C25.6892 16.6667 20.8254 16.6667 17.1436 18.6347C14.2364 20.1886 11.8554 22.5696 10.3015 25.4768C8.3335 29.1586 8.3335 34.0224 8.3335 43.75C8.3335 49.5867 8.3335 52.505 9.5143 54.714C10.4466 56.4584 11.8753 57.887 13.6195 58.8194C15.8286 60 18.7469 60 24.5835 60H55.4168C61.2535 60 64.1718 60 66.3808 58.8194C68.1252 57.887 69.5538 56.4584 70.4862 54.714C71.6668 52.505 71.6668 49.5867 71.6668 43.75C71.6668 34.0224 71.6668 29.1586 69.6988 25.4768C69.1188 24.3919 68.4238 23.3802 67.6292 22.4575" stroke="#003C05" stroke-width="3.75" stroke-linecap="round"/>
<path d="M41.6685 60V36.6667C41.6685 33.57 41.6685 32.0216 41.4632 30.7261C40.3338 23.5945 34.7405 18.0014 27.609 16.8718C27.3362 16.8286 27.052 16.7945 26.7446 16.7676" stroke="#003C05" stroke-width="3.75" stroke-linecap="round"/>
</svg>
