<svg width="80" height="80" viewBox="0 0 80 80" fill="none" xmlns="http://www.w3.org/2000/svg">
<path d="M72.9883 22.1027C74.0557 25.0942 72.559 27.1424 69.6617 29.16C67.324 30.7878 64.346 32.5514 61.1903 35.5663C58.0967 38.522 55.0777 42.082 52.3943 45.586C49.143 49.832 46.0683 54.267 43.362 58.885C42.3417 60.634 40.5067 61.6926 38.5393 61.6663C36.5717 61.6396 34.764 60.5323 33.7877 58.7556C31.2918 54.2133 29.3659 52.4196 28.4807 51.7753C26.0247 49.9876 23.333 49.6783 23.333 45.7783C23.333 42.5873 25.8204 40.0006 28.8888 40.0006C31.0846 40.0886 33.0948 41.0293 34.8527 42.309C35.9933 43.1393 37.2013 44.237 38.458 45.6823C39.9327 43.5033 41.71 40.9893 43.702 38.3876C46.5953 34.6096 50.0103 30.5563 53.6727 27.0573C57.2727 23.6177 61.435 20.398 65.847 18.6957C68.7237 17.5857 71.921 19.1111 72.9883 22.1027Z" stroke="#003C05" stroke-width="5" stroke-linecap="round" stroke-linejoin="round"/>
<path d="M14.799 40.2516C14.2709 40.0786 13.7935 39.9696 13.3754 39.9043C13.1668 39.8716 12.9745 39.85 12.7995 39.8366L12.3299 39.818C9.20236 39.818 6.66699 42.4266 6.66699 45.6443C6.66699 48.5563 8.74346 50.9693 11.4562 51.4016C11.551 51.4516 11.7049 51.5413 11.9139 51.692C12.8161 52.3416 14.7792 54.1507 17.3232 58.731C18.3184 60.523 20.1607 61.6393 22.1664 61.6663C23.5404 61.6847 24.8509 61.189 25.8745 60.308M50.0003 18.3333C45.5033 20.05 41.2607 23.2968 37.5913 26.7654C36.31 27.9766 35.0583 29.2537 33.8477 30.5628" stroke="#003C05" stroke-width="5" stroke-linecap="round" stroke-linejoin="round"/>
</svg>
