<svg width="40" height="40" viewBox="0 0 40 40" fill="none" xmlns="http://www.w3.org/2000/svg">
<rect x="0.5" y="0.5" width="39" height="39" rx="19.5" stroke="#BDBDBD"/>
<path d="M26.5 28V25.9704C26.5 24.7281 25.9407 23.5099 24.8103 22.9946C23.4315 22.3661 21.7779 22 20 22C18.2221 22 16.5685 22.3661 15.1897 22.9946C14.0593 23.5099 13.5 24.7281 13.5 25.9704V28" stroke="#141B34" stroke-width="1.5" stroke-linecap="round" stroke-linejoin="round"/>
<path d="M20 19C21.933 19 23.5 17.433 23.5 15.5C23.5 13.567 21.933 12 20 12C18.067 12 16.5 13.567 16.5 15.5C16.5 17.433 18.067 19 20 19Z" stroke="#141B34" stroke-width="1.5" stroke-linecap="round" stroke-linejoin="round"/>
</svg>
